<?xml version="1.0" encoding="utf-8"?>
<!-- Generator: Adobe Illustrator 22.0.0, SVG Export Plug-In . SVG Version: 6.00 Build 0)  -->
<svg version="1.1" id="Capa_1" xmlns="http://www.w3.org/2000/svg" xmlns:xlink="http://www.w3.org/1999/xlink" x="0px" y="0px"
	 viewBox="0 0 150 150" style="enable-background:new 0 0 150 150;" xml:space="preserve">
<style type="text/css">
	.st0{display:none;fill:#FDFDFD;}
	.st1{fill:#979397;}
	.st2{fill:#B5B0B5;}
	.st3{fill:#D2CCD2;}
	.st4{fill:#706D70;}
	.st5{fill:#F7C82C;}
	.st6{fill:#FDFDFD;}
</style>
<g>
	<path class="st0" d="M-183.2,64.7c0-84,0-168-0.1-252c0-3.4,0.7-4.1,4.1-4.1c168,0.1,336,0.1,504,0c3.4,0,4.1,0.7,4.1,4.1
		c-0.1,168-0.1,336,0,504c0,3.4-0.7,4.1-4.1,4.1c-168-0.1-336-0.1-504,0c-3.4,0-4.1-0.7-4.1-4.1
		C-183.2,232.7-183.2,148.7-183.2,64.7z M96.8,50.6c-1,0.7-1.7,1.7-1.7,3c-1.4,1.6-2.8,3.2-4.1,4.8C80,61.5,69.3,65.1,59.6,71.2
		c-62,38.9-124.1,77.8-186.1,116.9c-15.5,9.8-21.6,25-22.4,42.7c2.2,6.1,3.1,6.5,8,3.3c54.8-35.3,109-71.4,163.1-107.8
		c5.1-3.4,9.8-7.4,15.5-9.8c0.3,2.3-1.5,3.7-2.7,5.1C24.4,134.1,13.6,146.5,2.9,159c-17,19.7-34.1,39.4-51.1,59.2
		c-17.5,20.4-34.9,40.9-52.3,61.4c-1.6,1.9-4.7,4.1-3.9,6.3c0.5,1.3,4.7,1.2,7.2,1.7c18.9,1.2,35.2-3.6,46.7-20
		c4.4-6.3,9.7-11.9,14.5-17.8c19.2-23.4,38.4-46.8,57.7-70.2c19.3-23.5,38.6-47.1,58-70.5c9.7-11.7,19.2-23.5,24.1-38.2
		c0.5-0.3,1.2-0.4,1-1.3l0,0.1c0.6,0,1.4,0.2,1.9-0.1c12.7-5.7,25.4-11.4,38.1-17.1c1.4,0.3,2.6-0.4,3.8-0.9
		c10.4-3.5,20.7-7.3,31.2-10.5c11.1-3.4,22.4-6.5,34.1-7c5-0.2,9.4,0.7,12.8,5.1c2.6,3.4,6.2,6.1,10,8.2c11.5,6.3,23.3,8.8,35.6,2.2
		l0.3,0.1c0,0,0.2-0.2,0.2-0.2c0.5-0.3,0.9-0.6,1.4-0.9c10.4-4.3,16.9-12.1,19.5-22.9c5.2-21.8-10.9-46.3-34-51.6
		c-5.9-1.4-11.4-3.5-16.8-5.9c-8.4-3.7-9.9-3.3-15.1,4.3c-1.5,0.2-2.1,1.5-2.7,2.6c-4.7,8.2-8.2,16.9-10,26.2
		c-0.7,3.6-1.6,7.1-3.3,10.3c-5.6,6.8-12.7,11.5-20.5,15.3c-25.6,12.5-52.9,20.2-80.5,26.9c7.9-22.5,17.3-44.2,29.1-65
		c4-7.1,9.7-13,13.6-20.2c0.6-0.4,1.3-0.7,1.9-1.1c0.9-0.8,1.7-1.7,2.6-2.5c1.7-1.4,3.4-2.9,5.2-4.3c4.3-2.3,8.8-3.2,13.7-3.6
		c9.1-0.7,17.9-3.1,26.4-6.5c3.9-1.5,6.9-3.9,8.2-8.1c1.7-1.7,1.5-3.5,0.7-5.5c-1.8-5-4.4-9.9-5.1-15c-2.4-19.6-13.7-31-31.8-36.7
		c0.2-12,2-23.5,8.9-33.8c1.9-2.8,1.5-5.4-0.7-7.7c-1.7-1.8-3.9-2.7-6.3-1.7c-2.9,1.3-5.2,3.6-4.7,6.9c2.1,12.3-0.8,23.8-4.7,35.2
		c-20.3,0.6-29.8,7.6-35.6,26.3c-3.1,11.8,0.3,22.1,7.8,31.1c3,3.5,4.8,7.1,4.6,11.6c-0.1,0.8-0.1,1.6-0.3,2.4
		c-4.8,17.8-13,34.2-21.4,50.5c-3.2,6.1-7.3,11.8-8.9,18.7c-1.1,0-2,0.4-2.1,1.6l0.1,0.4c-0.4,0.5-0.7,1-1.1,1.6l0-0.1
		c-1.3,1.1-2.2,2.3-2,4.1l0,0c-0.7,0-1,0.5-1.1,1.1l0.1-0.1c-2.2,2.4-3.8,5.1-5.1,8l0.1,0c-1.1,0.7-1.7,1.8-2.1,3l0.1,0
		c-1,0.8-1.7,1.8-2.1,3.1c0,0,0.1-0.1,0.1-0.1C98.1,48.6,97.4,49.6,96.8,50.6L96.8,50.6z"/>
	<path class="st1" d="M24.9,107.4c0.2-4.1,1.6-7.7,5.2-10c14.5-9.1,29-18.2,43.5-27.3c2.3-1.4,4.8-2.3,7.3-3c0,0.6-0.5,0.9-0.9,1.3
		c-0.8,1-1.8,1.8-2.4,3c-0.2-0.1-0.4-0.2-0.6,0.1c-0.6,0.7-1.1,1.4-1.7,2c-1.7,1.9-3.4,3.9-5.1,5.8c-0.4-0.4-0.7,0-1,0.2
		c-5.4,3.4-10.7,6.8-16.1,10.2c-8.2,5.2-16.3,10.4-24.6,15.6C27.4,106.1,26.3,107.1,24.9,107.4z"/>
	<path class="st2" d="M77.7,71.5c0.6-1.2,1.6-2,2.4-3c0.3-0.4,0.9-0.7,0.9-1.3c0.3-0.4,0.6-0.8,1-1.1c0.5,0,0.4-0.4,0.4-0.7
		c0,0,0,0,0,0c0.5,0,0.5-0.4,0.5-0.7c0,0,0,0,0,0c0.5,0,0.5-0.4,0.5-0.7c0,0,0,0,0,0c0.5,0,0.5-0.4,0.5-0.7c0,0,0,0,0,0
		c0.8-0.4,1.1-1,1.2-1.9c0,0,0,0,0,0c0.1-0.1,0.2-0.2,0.2-0.2c0,0,0,0,0,0c0.5-0.2,0.5-0.5,0.5-0.9c0,0,0,0,0,0
		c0.1-0.1,0.2-0.2,0.2-0.4c0,0,0-0.1,0-0.1c0.3,0,0.4-0.1,0.5-0.4c0.4-1.6,1.3-2.9,2.1-4.4c2-3.8,3.9-7.6,5-11.8
		c0-0.2,0.1-0.4,0.1-0.6c0.9-0.9,0.8-2.1-0.1-3.1c-1.3-1.3-2.1-2.9-2.5-4.7c-0.2-0.7,0.2-1.5-0.2-2.1c1.4-4.4,3.6-6,8.3-6.2
		c0.6,0.1,1.2,0.1,1.8,0.2c4.2,1.3,6.9,4,7.4,8.6c0.1,1.2,0.8,2.4,1.2,3.5c0.2,0.5,0.2,0.9-0.2,1.3c-2.5,1.4-5.2,2.2-8.1,2.4
		c-1.4,0.1-2.5,0.6-3.5,1.6c-0.5,0.3-1,0.6-0.9,1.3c-0.2,0.2-0.4,0.4-0.6,0.6c-0.1,0.1-0.3,0.2-0.4,0.3c-0.9,1.7-2.2,3.1-3.2,4.7
		c-2.8,4.8-5,9.9-6.8,15.2c-0.7,1.1-1,2.4-1.4,3.7c0,0,0,0,0,0C84.1,69.9,84,70,84,70.1c-1.1,3.4-3.4,6.2-5.6,8.9
		c-4.5,5.5-9,11-13.6,16.5c-4.5,5.5-9,10.9-13.5,16.4c-1.1,1.4-2.4,2.7-3.4,4.1c-2.7,3.8-6.5,5-10.9,4.7c0.1-0.6,0.5-0.6,0.9-0.7
		c1.5-0.3,2.8-1,4-1.8c3-1.9,4.8-4.9,7.1-7.5c2.5-2.7,4.8-5.7,7.2-8.5c2.4-2.8,4.8-5.6,7.2-8.5c2.4-2.8,4.8-5.7,7.2-8.5
		c2.6-3.1,5.3-6.2,7.9-9.4c1.3-1.6,1.2-2.1-0.2-3.6C78.2,72.1,77.9,71.8,77.7,71.5z M106,37.1c0.9-2.4,0.2-5-2.2-7.1
		c-3.2-2.8-8.1-2.5-10.2,0.4c0,0.3-0.1,0.4-0.2,0.6c-0.7,1.2-1.2,2.5-0.8,4c0.7,2.9,2.5,4.7,5.2,5.6C100.5,41.5,104.7,40.9,106,37.1
		z M83.5,69.4c0-0.9-0.6-1.5-1.5-1.5c-0.9,0-1.7,0.8-1.7,1.7c0,0.9,0.5,1.4,1.4,1.5C82.6,71.3,83.5,70.4,83.5,69.4z"/>
	<path class="st3" d="M77.7,71.5c0.3,0.3,0.5,0.6,0.8,0.9c1.4,1.4,1.5,2,0.2,3.6c-2.6,3.2-5.3,6.3-7.9,9.4c-2.4,2.8-4.8,5.7-7.2,8.5
		c-2.4,2.8-4.8,5.6-7.2,8.5c-2.4,2.8-4.7,5.8-7.2,8.5c-2.3,2.5-4.1,5.6-7.1,7.5c-1.3,0.8-2.5,1.5-4,1.8c-0.4,0.1-0.9,0.1-0.9,0.7
		c-0.6-0.1-1.6-0.1-1.7-0.4c-0.2-0.5,0.5-1,0.9-1.5c4.1-4.8,8.1-9.6,12.2-14.3c4-4.6,8-9.2,11.9-13.8c2.5-2.9,5-5.8,7.5-8.7
		c0.3-0.3,0.7-0.7,0.6-1.2c0,0,0,0,0,0c0.2,0,0.4,0,0.5-0.2l0,0c0.2-0.1,0.2-0.2,0-0.2c0.4-0.3,0.8-0.6,1.2-0.9
		c1.7-1.9,3.4-3.9,5.1-5.8c0.6-0.7,1.2-1.3,1.7-2C77.2,71.3,77.4,71.4,77.7,71.5z"/>
	<path class="st1" d="M84.2,69.8c0.4-1.3,0.6-2.6,1.4-3.7c6.4-1.6,12.8-3.4,18.8-6.3c1.8-0.9,3.5-2,4.8-3.6c1.3-0.4,1.4-1.5,1.6-2.5
		c0.3-1.7,0.8-3.2,1.5-4.7c0.2-0.6,0.8-1.2,0.7-1.9c1.2-1.8,1.6-1.9,3.5-1c1.3,0.6,2.6,1.1,3.9,1.4c5.4,1.2,9.1,7,7.9,12.1
		c-0.6,2.5-2.1,4.3-4.5,5.3c-0.1,0.1-0.2,0.1-0.3,0.2c0,0,0,0,0,0s-0.1,0-0.1,0c-0.3,0-0.5,0-0.8,0c-3.2,0.6-6.1-0.3-8.3-2.6
		c-1.6-1.8-3.4-1.8-5.4-1.5c-4.5,0.7-8.7,2.1-12.9,3.7c-0.8,0.3-1.8,0.4-2.4,1.1c-3,1.3-5.9,2.7-8.9,4
		C84.5,69.9,84.3,69.8,84.2,69.8z M115.7,49.9c-1.7,0.6-2.6,1.8-3.1,3.5c-1.1,4,1.6,8.7,6,9.9c2.2,0.6,4.2,0.5,5.8-1.4
		c0.6,0,0.9-0.4,1.2-0.8c1-1.6,1.4-3.3,1-5.2c-0.9-4.4-5.3-7.6-9.7-6.8C116.5,49.1,116,49.3,115.7,49.9z"/>
	<path class="st4" d="M70.2,79.4c-0.4,0.3-0.8,0.6-1.2,0.9c0,0-0.1,0.1-0.1,0.1c0,0.1,0,0.1,0.1,0.2c0,0,0,0,0,0
		c-0.3-0.2-0.4,0-0.5,0.2c0,0,0,0,0,0c-1.3,0.6-2.4,1.5-3.6,2.3c-12.6,8.5-25.3,16.9-38.1,25.2c-1.1,0.7-1.4,0.6-1.9-0.8
		c1.4-0.3,2.5-1.3,3.6-2c8.2-5.2,16.4-10.4,24.6-15.6c5.4-3.4,10.7-6.8,16.1-10.2C69.5,79.4,69.7,79,70.2,79.4z"/>
	<path class="st4" d="M93.5,65.8c0.6-0.7,1.6-0.8,2.4-1.1c4.2-1.6,8.5-3,12.9-3.7c2-0.3,3.8-0.2,5.4,1.5c2.2,2.4,5,3.3,8.3,2.6
		c0.3,0,0.5,0,0.8,0c-2.9,1.6-5.6,1-8.3-0.5c-0.9-0.5-1.7-1.1-2.3-1.9c-0.8-1-1.8-1.2-3-1.2c-2.7,0.1-5.4,0.8-8,1.6
		c-2.4,0.7-4.9,1.6-7.3,2.5C94.1,65.7,93.9,65.9,93.5,65.8z"/>
	<path class="st5" d="M100.6,26.8c-0.6-0.1-1.2-0.1-1.8-0.2c0.9-2.7,1.6-5.4,1.1-8.2c-0.1-0.8,0.4-1.3,1.1-1.6
		c0.6-0.3,1.1,0,1.5,0.4c0.5,0.5,0.6,1.1,0.2,1.8C101.1,21.3,100.7,24,100.6,26.8z"/>
	<path class="st4" d="M97.5,44.1c1-1,2.2-1.5,3.5-1.6c2.9-0.2,5.6-1,8.1-2.4c-0.3,1-1,1.5-1.9,1.9c-2,0.8-4,1.4-6.2,1.5
		c-1.1,0.1-2.2,0.3-3.2,0.8C97.7,44.3,97.6,44.2,97.5,44.1z"/>
	<path class="st1" d="M90.5,32.7c0.4,0.7,0.1,1.4,0.2,2.1c0.4,1.8,1.2,3.4,2.5,4.7c1,1,1,2.2,0.1,3.1c0-1.1-0.4-1.9-1.1-2.7
		C90.6,37.9,89.8,35.5,90.5,32.7z"/>
	<path class="st4" d="M112.9,47.1c0,0.7-0.5,1.3-0.7,1.9c-0.6,1.5-1.2,3.1-1.5,4.7c-0.1,1-0.3,2.1-1.6,2.5c0.4-0.8,0.6-1.6,0.8-2.4
		c0.4-2.2,1.3-4.2,2.3-6.1C112.4,47.5,112.6,47.2,112.9,47.1z"/>
	<path class="st1" d="M84.9,61.4c-0.1,0.8-0.4,1.5-1.2,1.9C84,62.6,84.4,61.9,84.9,61.4z"/>
	<path class="st1" d="M97.5,44.1c0.1,0.1,0.2,0.2,0.3,0.3c-0.4,0.3-0.8,0.7-1.2,1C96.5,44.7,97,44.4,97.5,44.1z"/>
	<path class="st1" d="M85.6,60.2c0,0.4,0,0.8-0.5,0.9C85.1,60.8,85.3,60.5,85.6,60.2z"/>
	<path class="st1" d="M83.7,63.3c0,0.4,0,0.7-0.5,0.7C83.3,63.7,83.5,63.4,83.7,63.3z"/>
	<path class="st1" d="M83.2,64c0,0.4,0,0.7-0.5,0.7C82.9,64.4,83,64.1,83.2,64z"/>
	<path class="st1" d="M82.8,64.7c0,0.4,0,0.7-0.5,0.7C82.5,65.1,82.6,64.9,82.8,64.7z"/>
	<path class="st1" d="M82.3,65.4c0,0.3,0.1,0.7-0.4,0.7C81.9,65.7,82.1,65.5,82.3,65.4z"/>
	<path class="st1" d="M86.3,59.4c-0.1,0.2-0.2,0.4-0.5,0.4C85.8,59.5,86,59.4,86.3,59.4z"/>
	<path class="st1" d="M95.5,46.3c0.1-0.1,0.3-0.2,0.4-0.3C95.8,46.1,95.7,46.2,95.5,46.3z"/>
	<path class="st1" d="M85.8,59.9c-0.1,0.1-0.2,0.2-0.2,0.4C85.7,60.1,85.7,60,85.8,59.9z"/>
	<path class="st1" d="M85.1,61.2c-0.1,0.1-0.2,0.2-0.2,0.2C84.9,61.3,84.9,61.1,85.1,61.2z"/>
	<path class="st4" d="M123.4,65.1c0.1-0.1,0.2-0.1,0.3-0.2C123.7,65,123.5,65.1,123.4,65.1z"/>
	<path class="st1" d="M84,70.1c0.1-0.1,0.2-0.2,0.2-0.3C84.2,70,84.1,70.1,84,70.1z"/>
	<path class="st6" d="M106,37.1c-1.2,3.8-5.5,4.4-8.3,3.5c-2.7-0.9-4.5-2.7-5.2-5.6c-0.4-1.5,0.1-2.7,0.8-4c0.1-0.2,0.3-0.4,0.2-0.6
		c1.1-0.1,1.9-0.9,3-1.2C101.1,28.1,106.5,31.9,106,37.1z"/>
	<path class="st4" d="M106,37.1c0.5-5.2-4.9-9-9.4-7.9c-1.1,0.3-1.9,1.1-3,1.2c2-2.9,7-3.2,10.2-0.4C106.1,32.1,106.9,34.7,106,37.1
		z"/>
	<path class="st5" d="M83.5,69.4c0,1-0.9,1.8-1.8,1.7c-0.9-0.1-1.4-0.6-1.4-1.5c0-0.9,0.8-1.7,1.7-1.7
		C82.9,67.9,83.5,68.6,83.5,69.4z"/>
	<path class="st6" d="M68.5,80.8c0.1-0.2,0.2-0.5,0.5-0.2C68.9,80.8,68.7,80.8,68.5,80.8z"/>
	<path class="st6" d="M40.9,123.6c-0.1-0.3-0.2-0.5-0.3-0.8c0-0.1,0.2-0.2,0.3-0.4C41.6,122.9,41.8,123.3,40.9,123.6z"/>
	<path class="st4" d="M124.5,61.9c1.9-2.9,1.6-5.8-0.3-8.5c-2-2.9-4.9-4.2-8.5-3.5c0.2-0.6,0.8-0.7,1.3-0.8c4.4-0.8,8.8,2.4,9.7,6.8
		c0.4,1.9,0,3.6-1,5.2C125.4,61.4,125.2,61.9,124.5,61.9z"/>
</g>
</svg>
