<?xml version="1.0" ?><svg id="Layer_1_1_" style="enable-background:new 0 0 64 64;" version="1.1" viewBox="0 0 64 64" xml:space="preserve" xmlns="http://www.w3.org/2000/svg" xmlns:xlink="http://www.w3.org/1999/xlink"><g><path d="M46,34h-2c0,1.103-0.897,2-2,2s-2-0.897-2-2h-2c0,2.206,1.794,4,4,4S46,36.206,46,34z"/><path d="M58.214,46.685L48,43.279v-2.072c2.21-1.445,3.864-3.663,4.589-6.267C55.066,34.645,57,32.555,57,30v-8   c0-8.271-6.729-15-15-15c-6.944,0-12.784,4.749-14.485,11.166c-0.178-0.201-0.346-0.411-0.536-0.601l-5.674-5.674l4.136-5.789   C25.807,5.592,26,4.989,26,4.359V4c0-1.654-1.346-3-3-3c-1.33,0-2.036,0.808-2.504,1.342C20.06,2.839,19.886,3,19.497,3   c-0.39,0-0.563-0.161-1-0.659C18.029,1.807,17.323,1,15.994,1c-1.328,0-2.034,0.808-2.502,1.342C13.058,2.839,12.884,3,12.496,3   s-0.561-0.161-0.995-0.658C11.034,1.808,10.328,1,9,1C7.346,1,6,2.346,6,4v0.359c0,0.63,0.193,1.232,0.559,1.743l4.136,5.789   l-5.674,5.674C2.428,20.158,1,23.605,1,27.272C1,34.842,7.158,41,14.728,41h2.545c4.934,0,9.463-2.667,11.895-6.888   c0.652,0.451,1.42,0.73,2.244,0.828c0.724,2.605,2.379,4.822,4.589,6.267v2.072l-10.214,3.405C22.924,47.638,21,50.307,21,53.324   V63h42v-9.676C63,50.307,61.076,47.638,58.214,46.685z M52.958,32.829C52.979,32.554,53,32.28,53,32v-4.816   c1.161,0.414,2,1.514,2,2.816C55,31.317,54.141,32.427,52.958,32.829z M42,9c7.168,0,13,5.832,13,13v4.026   c-0.584-0.442-1.257-0.773-2-0.924V23h-3c-2.817,0-5.509-1.346-7.2-3.601L42,18.334l-0.8,1.065C39.509,21.654,36.817,23,34,23h-3   v2.101c-0.743,0.152-1.416,0.482-2,0.924V22C29,14.832,34.832,9,42,9z M8,4.359V4c0-0.552,0.448-1,1-1   c0.388,0,0.561,0.161,0.995,0.658C10.462,4.192,11.168,5,12.496,5s2.034-0.808,2.502-1.342C15.433,3.161,15.606,3,15.994,3   c0.389,0,0.562,0.161,0.999,0.658C17.461,4.192,18.167,5,19.497,5C20.826,5,21.532,4.193,22,3.659C22.437,3.161,22.61,3,23,3   c0.552,0,1,0.448,1,1v0.359c0,0.21-0.064,0.411-0.186,0.581L19.486,11h-6.972L8.186,4.94C8.064,4.771,8,4.569,8,4.359z M17.272,39   h-2.545C8.261,39,3,33.739,3,27.272c0-3.133,1.22-6.078,3.435-8.293L12.414,13h7.172l5.979,5.979   c0.562,0.562,1.057,1.19,1.494,1.854C27.029,21.219,27,21.606,27,22v8c0,0.942,0.277,1.814,0.732,2.567   C25.743,36.489,21.698,39,17.272,39z M29,30c0-1.302,0.839-2.402,2-2.816V32c0,0.28,0.021,0.554,0.042,0.829   C29.859,32.427,29,31.317,29,30z M33,32v-7h1c3.028,0,5.937-1.271,8-3.452C44.063,23.729,46.972,25,50,25h1v7c0,4.963-4.037,9-9,9   S33,36.963,33,32z M42,43c1.412,0,2.758-0.277,4-0.764v1.35l-4,4l-4-4v-1.35C39.242,42.723,40.588,43,42,43z M51,57h-2   c-2.414,0-4.434,1.721-4.899,4h-4.202c-0.465-2.279-2.484-4-4.899-4h-2v-6h18V57z M23,53.324c0-2.155,1.374-4.062,3.419-4.743   l10.311-3.437L40.586,49H31v8h-2v-4h-2v6h8c1.302,0,2.402,0.839,2.816,2H23V53.324z M61,61H46.184c0.414-1.161,1.514-2,2.816-2h8   v-6h-2v4h-2v-8h-9.586l3.856-3.856l10.311,3.437C59.626,49.263,61,51.169,61,53.324V61z"/><circle cx="37" cy="28" r="1"/><circle cx="47" cy="28" r="1"/><path d="M9.263,21.808l1.101-1.101l-1.414-1.414l-1.101,1.101c-0.312,0.312-0.605,0.648-0.874,1.001l1.592,1.211   C8.78,22.324,9.015,22.056,9.263,21.808z"/><path d="M7,27.272c0-1.007,0.188-1.981,0.559-2.897l-1.854-0.75C5.237,24.78,5,26.008,5,27.272c0,4.614,3.281,8.625,7.803,9.536   l0.395-1.961C9.606,34.124,7,30.938,7,27.272z"/><path d="M16,21c1.103,0,2,0.897,2,2h2c0-1.859-1.279-3.411-3-3.858V17h-2v2.142c-1.721,0.447-3,1.999-3,3.858c0,2.206,1.794,4,4,4   c1.103,0,2,0.897,2,2s-0.897,2-2,2s-2-0.897-2-2h-2c0,1.859,1.279,3.411,3,3.858V35h2v-2.142c1.721-0.447,3-1.999,3-3.858   c0-2.206-1.794-4-4-4c-1.103,0-2-0.897-2-2S14.897,21,16,21z"/></g></svg>