<?xml version="1.0" encoding="utf-8"?>
<!-- Generator: Adobe Illustrator 22.0.0, SVG Export Plug-In . SVG Version: 6.00 Build 0)  -->
<svg version="1.1" id="Capa_1" xmlns="http://www.w3.org/2000/svg" xmlns:xlink="http://www.w3.org/1999/xlink" x="0px" y="0px"
	 viewBox="0 0 303 54" style="enable-background:new 0 0 303 54;" xml:space="preserve">
<style type="text/css">
	.st0{fill:#FFFFFF;}
	.st1{fill:none;stroke:#E12F2C;stroke-width:3;stroke-miterlimit:10;}
	.st2{fill:none;stroke:#E12F2C;stroke-width:3;stroke-linecap:round;stroke-linejoin:round;stroke-miterlimit:10;}
	.st3{fill:#1A171B;}
</style>
<symbol  id="Nuevo_símbolo" viewBox="-33.7 -29 67.3 58">
	<use xlink:href="#sewing"  width="67.3" height="58" x="-33.7" y="-29" style="overflow:visible;"/>
</symbol>
<symbol  id="Nuevo_símbolo_1" viewBox="-33.7 -29 67.3 58">
	<use xlink:href="#Nuevo_símbolo"  width="67.3" height="58" x="-33.7" y="-29" style="overflow:visible;"/>
</symbol>
<symbol  id="sewing" viewBox="-33.7 -29 67.3 58">
	<g>
		<path class="st0" d="M32.2,17.8V7.9c0-0.9-0.7-1.6-1.6-1.6h-3.8c-0.9,0-1.6,0.7-1.6,1.6v9.8c0,0.9,0.7,1.6,1.6,1.6h3.8
			C31.5,19.3,32.2,18.6,32.2,17.8z"/>
		<path class="st0" d="M12.6,2.8c2.6,0,4.7-2.1,4.7-4.7c0-2.6-2.1-4.7-4.7-4.7c-2.6,0-4.7,2.1-4.7,4.7C7.9,0.7,10,2.8,12.6,2.8z"/>
		<path class="st0" d="M24.5,22.5v-45c0-2.8-2.2-5-5-5h-46.7c-2.8,0-5,2.2-5,5v11.8H-3c0,0,4.3,0.3,4.3,4.5V5.7c0,0,0.7,4.2-4.2,4.5
			L-11,10c0,0-5,0.8-4.3-5.3c0,0-1-3.7-6.8-3h-2.1h-3.1c0,0-5.2-0.5-4.8,4.3v6.7v9.8c0,2.8,2.2,5,5,5h46.7
			C22.3,27.5,24.5,25.3,24.5,22.5z M17.2-1.9c0,2.6-2.1,4.7-4.7,4.7c-2.6,0-4.7-2.1-4.7-4.7c0-2.6,2.1-4.7,4.7-4.7
			C15.2-6.5,17.2-4.4,17.2-1.9z M14.4,15.1c0,0.8-0.6,1.4-1.4,1.4c-0.8,0-1.4-0.6-1.4-1.4c0-0.8,0.6-1.4,1.4-1.4
			C13.8,13.7,14.4,14.3,14.4,15.1z"/>
		<path class="st0" d="M13,16.5c0.8,0,1.4-0.6,1.4-1.4c0-0.8-0.6-1.4-1.4-1.4c-0.8,0-1.4,0.6-1.4,1.4C11.6,15.8,12.2,16.5,13,16.5z"
			/>
	</g>
	<g>
		<path class="st1" d="M-32.2,12.7v9.8c0,2.8,2.2,5,5,5h46.7c2.8,0,5-2.2,5-5v-45c0-2.8-2.2-5-5-5h-46.7c-2.8,0-5,2.2-5,5v11.8H-3
			c0,0,4.3,0.3,4.3,4.5V5.7c0,0,0.7,4.2-4.2,4.5L-11,10c0,0-5,0.8-4.3-5.3c0,0-1-3.7-6.8-3h-2.1h-3.1c0,0-5.2-0.5-4.8,4.3V12.7z"/>
		<path class="st1" d="M30.6,6.3h-3.8c-0.9,0-1.6,0.7-1.6,1.6v9.8c0,0.9,0.7,1.6,1.6,1.6h3.8c0.9,0,1.6-0.7,1.6-1.6V7.9
			C32.2,7,31.5,6.3,30.6,6.3z"/>
		<line class="st2" x1="-24.3" y1="1.7" x2="-24.3" y2="-4.4"/>
		<path class="st2" d="M17.2-1.9c0-2.6-2.1-4.7-4.7-4.7c-2.6,0-4.7,2.1-4.7,4.7c0,2.6,2.1,4.7,4.7,4.7C15.2,2.8,17.2,0.7,17.2-1.9z"
			/>
	</g>
</symbol>
<use xlink:href="#Nuevo_símbolo_1"  width="67.3" height="58" id="XMLID_3_" x="-33.7" y="-29" transform="matrix(0.7046 0 0 -0.7046 31.9318 28.6211)" style="overflow:visible;"/>
<g>
	<path class="st3" d="M87.4,44.2h-4V20.7l-6.5,23.5h-4.5l-6.5-23.3v23.3h-4.1V11.5h5.9l6.9,25.3l6.9-25.3h5.9V44.2z"/>
	<path class="st3" d="M112.4,44.2h-5.2l-1.3-7.2h-8.2l-1.4,7.2h-5.2l7-32.6h7.1L112.4,44.2z M105.4,34.3l-3.5-18.2
		c-0.1-0.3-0.1-0.7-0.1-1.1h-0.1c0,0.4,0,0.8-0.1,1.1l-3.5,18.2H105.4z"/>
	<path class="st3" d="M138.7,35.7c0,2.1-0.4,3.9-1.3,5.5c-1.1,2-2.6,3-4.6,3h-3.3l1.6,3.4h-3.5l-1.6-3.4h-5.4c-2,0-3.5-1-4.6-3
		c-0.8-1.6-1.3-3.4-1.3-5.5V20.2c0-2.1,0.4-3.9,1.3-5.6c1.1-2,2.6-3.1,4.6-3.1h12.3c2,0,3.5,1,4.6,3.1c0.8,1.6,1.3,3.5,1.3,5.6V35.7
		z M133.8,35.7V20.2c0-1.4-0.3-2.6-0.8-3.8c-0.7-1.4-1.7-2.1-3-2.1h-6.6c-1.3,0-2.3,0.7-3,2.1c-0.5,1.1-0.8,2.4-0.8,3.8v15.6
		c0,1.4,0.3,2.6,0.8,3.7c0.7,1.4,1.7,2.1,3,2.1h6.6c1.3,0,2.3-0.7,3-2.1C133.5,38.3,133.8,37.1,133.8,35.7z"/>
	<path class="st3" d="M166.1,35.7c0,2.1-0.4,3.9-1.3,5.5c-1,2-2.6,3-4.5,3h-11.7c-2,0-3.5-1-4.5-3c-0.9-1.6-1.3-3.4-1.3-5.5V11.6
		h4.9v24.1c0,1.4,0.3,2.6,0.8,3.7c0.7,1.4,1.7,2.1,3,2.1h6.1c1.3,0,2.3-0.7,3-2.1c0.5-1.1,0.8-2.3,0.8-3.7V11.6h4.9V35.7z"/>
	<path class="st3" d="M177.1,44.2h-5.3V11.5h5.3V44.2z"/>
	<path class="st3" d="M202.2,21.5c0,2.3-0.4,4.3-1.1,6.1c-1,2.4-2.6,3.6-4.7,3.6h-7.6v-2.8h4.7c1.4,0,2.4-0.9,3.1-2.7
		c0.5-1.3,0.7-2.7,0.7-4.3c0-1.6-0.2-3.1-0.7-4.4c-0.7-1.8-1.7-2.7-3-2.7h-6.8v29.9h-5.2V11.5h14.8c2.1,0,3.6,1.3,4.7,3.8
		C201.8,17.1,202.2,19.2,202.2,21.5z"/>
	<path class="st3" d="M224.2,44.2h-5.2l-1.3-7.2h-8.2l-1.4,7.2H203l7-32.6h7.1L224.2,44.2z M217.3,34.3l-3.5-18.2
		c-0.1-0.3-0.1-0.7-0.1-1.1h-0.1c0,0.4,0,0.8-0.1,1.1L210,34.3H217.3z"/>
	<path class="st3" d="M250.6,20.3c0,3.6-1.2,6.2-3.5,7.9c2.2,1.2,3.2,4,3.2,8.5v7.5h-4.9v-7.5c0-1.6-0.2-3.1-0.7-4.4
		c-0.7-1.9-1.7-2.8-3-2.8h-4.6v-2.8h4.7c1.3,0,2.3-0.7,3-2.2c0.5-1.2,0.8-2.5,0.8-3.9c0-1.4-0.3-2.7-0.8-3.9c-0.7-1.5-1.7-2.3-3-2.3
		H235v29.9h-5.2V11.5h14.8c2,0,3.6,1,4.7,3.1C250.2,16.3,250.6,18.2,250.6,20.3z"/>
	<path class="st3" d="M273.9,14.1h-7.4v30.1h-5.2V14.1h-6.8v-2.7h19.4V14.1z"/>
	<path class="st3" d="M295.8,34.3c0,2.3-0.4,4.3-1.3,6.2c-1.1,2.4-2.7,3.6-4.7,3.6h-12.6v-2.7h9.8c1.4,0,2.4-0.8,3.1-2.4
		c0.6-1.2,0.8-2.6,0.8-4.1c0-2.4-0.5-4-1.5-4.7c-0.7-0.6-2.1-0.9-4.1-0.9c-0.3,0-0.9,0-1.7,0c-0.8,0-1.4,0-1.9,0c-2,0-3.5-1-4.6-3.1
		c-0.8-1.6-1.3-3.5-1.3-5.7c0-2.1,0.4-4.1,1.3-5.8c1.1-2.2,2.6-3.3,4.6-3.3h11.4v2.8h-8.6c-1.3,0-2.3,0.7-3,2
		c-0.5,1.1-0.8,2.3-0.8,3.6c0,1.4,0.3,2.6,0.8,3.6c0.7,1.3,1.7,2,3,2h5.5c2,0,3.5,1.1,4.5,3.2C295.4,30.3,295.8,32.2,295.8,34.3z"/>
</g>
</svg>
